<?xml version="1.0" encoding="UTF-8"?>
<!DOCTYPE svg PUBLIC "-//W3C//DTD SVG 1.1//EN" "http://www.w3.org/Graphics/SVG/1.1/DTD/svg11.dtd">
<svg xmlns="http://www.w3.org/2000/svg" version="1.1" width="2442px" height="843px" style="shape-rendering:geometricPrecision; text-rendering:geometricPrecision; image-rendering:optimizeQuality; fill-rule:evenodd; clip-rule:evenodd" xmlns:xlink="http://www.w3.org/1999/xlink">
<g><path style="opacity:1" fill="#3b8dc9" d="M 1111.5,-0.5 C 1120.5,-0.5 1129.5,-0.5 1138.5,-0.5C 1173.8,6.96029 1196.97,27.9603 1208,62.5C 1216.24,101.13 1204.74,132.297 1173.5,156C 1141.17,175.333 1108.83,175.333 1076.5,156C 1040.74,127.466 1030.9,91.6329 1047,48.5C 1060.63,21.6944 1082.13,5.36107 1111.5,-0.5 Z"/></g>
<g><path style="opacity:1" fill="#0a2c73" d="M 1298.5,-0.5 C 1315.5,-0.5 1332.5,-0.5 1349.5,-0.5C 1349.5,273.833 1349.5,548.167 1349.5,822.5C 1332.5,822.5 1315.5,822.5 1298.5,822.5C 1298.5,676.167 1298.5,529.833 1298.5,383.5C 1218.17,383.333 1137.83,383.5 1057.5,384C 1043.6,418.632 1017.94,437.132 980.5,439.5C 970.623,438.821 960.956,437.321 951.5,435C 910.167,486.333 868.833,537.667 827.5,589C 841.83,619.038 837.83,646.371 815.5,671C 787.682,693.148 758.682,694.815 728.5,676C 707.12,658.395 698.787,635.895 703.5,608.5C 660.833,579.5 618.167,550.5 575.5,521.5C 547.336,543.083 516.336,548.25 482.5,537C 471.692,532.766 462.025,526.766 453.5,519C 452.833,518.333 452.167,518.333 451.5,519C 410.794,543.68 370.461,568.847 330.5,594.5C 337.108,629.513 326.441,658.013 298.5,680C 273.706,695.85 247.373,698.85 219.5,689C 182.681,671.546 165.848,642.379 169,601.5C 175.632,564.534 197.132,541.368 233.5,532C 259.732,527.266 283.232,533.1 304,549.5C 344.823,524.682 385.657,499.849 426.5,475C 416.188,426.628 432.521,390.294 475.5,366C 521.2,348.242 559.7,358.075 591,395.5C 608.355,421.368 612.522,449.201 603.5,479C 646.091,508.211 688.925,537.044 732,565.5C 749.753,555.178 768.587,552.344 788.5,557C 829.833,505.333 871.167,453.667 912.5,402C 899.549,381.79 896.049,359.956 902,336.5C 914.702,298.973 940.869,278.973 980.5,276.5C 1017.98,278.882 1043.65,297.382 1057.5,332C 1137.83,332.5 1218.17,332.667 1298.5,332.5C 1298.5,221.5 1298.5,110.5 1298.5,-0.5 Z"/></g>
<g><path style="opacity:1" fill="#3b8dc9" d="M 316.5,0.5 C 350.171,0.235615 373.338,15.5689 386,46.5C 394.968,81.7101 384.135,108.877 353.5,128C 317.803,142.869 288.303,135.036 265,104.5C 249.514,76.1476 251.514,49.1476 271,23.5C 283.469,10.3493 298.635,2.68262 316.5,0.5 Z"/></g>
<g><path style="opacity:1" fill="#3b8dc9" d="M 599.5,3.5 C 631.452,4.28448 646.619,20.6178 645,52.5C 637.52,77.8299 620.687,88.3299 594.5,84C 578.892,79.3922 569.059,69.2256 565,53.5C 562.242,26.7892 573.742,10.1225 599.5,3.5 Z"/></g>
<g><path style="opacity:1" fill="#3b8dc9" d="M 958.5,9.5 C 995.346,7.019 1016.35,24.019 1021.5,60.5C 1016.99,97.1783 996.325,114.345 959.5,112C 929.291,103.764 915.458,83.9312 918,52.5C 922.798,29.8716 936.298,15.5383 958.5,9.5 Z"/></g>
<g><path style="opacity:1" fill="#0a2c73" d="M 2441.5,115.5 C 2441.5,117.5 2441.5,119.5 2441.5,121.5C 2409.07,160.838 2376.73,200.338 2344.5,240C 2377.08,283.735 2409.42,327.568 2441.5,371.5C 2441.5,373.833 2441.5,376.167 2441.5,378.5C 2440.53,378.987 2439.53,379.487 2438.5,380C 2427.5,380.167 2416.5,380.333 2405.5,380.5C 2393.74,380.647 2382.07,380.147 2370.5,379C 2367.67,376.167 2364.83,373.333 2362,370.5C 2338.25,335.326 2314.25,300.326 2290,265.5C 2289.99,302.585 2289.32,339.585 2288,376.5C 2286.79,378.049 2285.29,379.215 2283.5,380C 2266.17,380.667 2248.83,380.667 2231.5,380C 2229.62,378.457 2228.12,376.624 2227,374.5C 2226.33,257.833 2226.33,141.167 2227,24.5C 2228.54,22.6217 2230.38,21.1217 2232.5,20C 2249.5,19.3333 2266.5,19.3333 2283.5,20C 2286,21.1667 2287.83,23 2289,25.5C 2289.33,91.8333 2289.67,158.167 2290,224.5C 2317.14,187.731 2344.64,151.231 2372.5,115C 2374.39,114.027 2376.39,113.36 2378.5,113C 2398.17,112.333 2417.83,112.333 2437.5,113C 2438.98,113.662 2440.32,114.496 2441.5,115.5 Z"/></g>
<g><path style="opacity:1" fill="#0a2c73" d="M 1459.5,27.5 C 1475.5,27.3334 1491.5,27.5001 1507.5,28C 1511.44,28.2141 1514.27,30.0474 1516,33.5C 1516.33,119.167 1516.67,204.833 1517,290.5C 1516.96,299.654 1518.96,308.321 1523,316.5C 1529.63,323.397 1537.8,326.897 1547.5,327C 1579.83,327.333 1612.17,327.667 1644.5,328C 1647,329.167 1648.83,331 1650,333.5C 1650.67,346.167 1650.67,358.833 1650,371.5C 1649.73,373.329 1648.89,374.829 1647.5,376C 1641.94,377.806 1636.28,379.139 1630.5,380C 1594.89,384.872 1559.23,385.538 1523.5,382C 1479.52,375.354 1455.36,349.854 1451,305.5C 1450.33,214.833 1450.33,124.167 1451,33.5C 1452.94,30.122 1455.78,28.122 1459.5,27.5 Z"/></g>
<g><path style="opacity:1" fill="#3b8dc9" d="M 58.5,36.5 C 91.1193,33.3736 112.953,47.0403 124,77.5C 130.14,108.383 119.306,130.883 91.5,145C 64.0781,154.272 41.2448,147.772 23,125.5C 8.09519,100.891 9.42852,77.2244 27,54.5C 35.7233,45.2522 46.2233,39.2522 58.5,36.5 Z"/></g>
<g><path style="opacity:1" fill="#3b8dc9" d="M 712.5,39.5 C 747.354,40.1918 768.52,57.5251 776,91.5C 777.105,132.561 757.272,155.561 716.5,160.5C 686.542,158.441 667.042,143.107 658,114.5C 652.64,80.713 665.473,56.8797 696.5,43C 701.905,41.5038 707.239,40.3372 712.5,39.5 Z"/></g>
<g><path style="opacity:1" fill="#3b8dc9" d="M 189.5,47.5 C 210.266,45.6234 224.433,54.29 232,73.5C 236.283,97.117 227.116,112.617 204.5,120C 182.261,122.809 167.761,113.643 161,92.5C 157.925,69.2802 167.425,54.2802 189.5,47.5 Z"/></g>
<g><path style="opacity:1" fill="#3b8dc9" d="M 455.5,63.5 C 485.976,62.4752 500.476,77.1419 499,107.5C 495.5,123 486,132.5 470.5,136C 440,137.5 425.5,123 427,92.5C 430.681,76.9862 440.181,67.3195 455.5,63.5 Z"/></g>
<g><path style="opacity:1" fill="#3b8dc9" d="M 849.5,67.5 C 879.509,68.6759 896.175,84.1759 899.5,114C 896.635,142.198 881.135,157.698 853,160.5C 824.649,157.816 809.482,142.316 807.5,114C 809.114,87.2229 823.114,71.7229 849.5,67.5 Z"/></g>
<g><path style="opacity:1" fill="#3b8dc9" d="M 568.5,99.5 C 608.861,97.5806 634.694,115.914 646,154.5C 651.118,189.431 638.284,215.264 607.5,232C 572.238,245.063 543.071,236.896 520,207.5C 504.394,180.976 504.727,154.643 521,128.5C 533.057,112.559 548.891,102.892 568.5,99.5 Z"/></g>
<g><path style="opacity:1" fill="#0a2c73" d="M 1773.5,109.5 C 1806.34,106.023 1836,113.857 1862.5,133C 1885.59,153.518 1898.42,179.351 1901,210.5C 1901.67,234.833 1901.67,259.167 1901,283.5C 1894.2,342.666 1861.36,376.166 1802.5,384C 1769.19,387.842 1739.19,379.842 1712.5,360C 1689.26,338.313 1676.76,311.479 1675,279.5C 1674.09,254.807 1674.43,230.14 1676,205.5C 1684.94,149.395 1717.44,117.395 1773.5,109.5 Z M 1779.5,164.5 C 1810.03,162.17 1828.86,175.837 1836,205.5C 1836.96,210.123 1837.62,214.79 1838,219.5C 1838.67,237.833 1838.67,256.167 1838,274.5C 1837.35,292.291 1830.85,307.458 1818.5,320C 1805.08,329.082 1790.42,331.748 1774.5,328C 1759.59,324.093 1749.43,314.926 1744,300.5C 1741.44,294.057 1739.78,287.39 1739,280.5C 1738.33,258.167 1738.33,235.833 1739,213.5C 1740.38,198.569 1746.22,185.736 1756.5,175C 1763.51,169.827 1771.17,166.327 1779.5,164.5 Z"/></g>
<g><path style="opacity:1" fill="#0a2c73" d="M 2045.5,109.5 C 2078.83,106.163 2108.83,114.329 2135.5,134C 2158.6,155.369 2171.1,181.869 2173,213.5C 2173.91,238.86 2173.58,264.193 2172,289.5C 2162.75,345.089 2130.25,376.589 2074.5,384C 2041.66,387.973 2011.99,380.307 1985.5,361C 1962.41,339.983 1949.58,313.817 1947,282.5C 1946.08,256.138 1946.41,229.805 1948,203.5C 1957.89,148.444 1990.39,117.11 2045.5,109.5 Z M 2051.5,164.5 C 2085.62,162.487 2104.78,178.487 2109,212.5C 2111.24,237.544 2110.91,262.544 2108,287.5C 2097.82,324.633 2074.32,337.133 2037.5,325C 2023.48,316.813 2014.98,304.646 2012,288.5C 2011.11,283.53 2010.45,278.53 2010,273.5C 2009.33,255.833 2009.33,238.167 2010,220.5C 2010.36,202.3 2016.86,186.8 2029.5,174C 2036.29,169.356 2043.62,166.189 2051.5,164.5 Z"/></g>
<g><path style="opacity:1" fill="#3b8dc9" d="M 942.5,157.5 C 977.967,158.798 994.8,177.131 993,212.5C 985.053,239.761 966.887,251.928 938.5,249C 912.749,241.567 900.582,224.4 902,197.5C 906.8,175.199 920.3,161.865 942.5,157.5 Z"/></g>
<g><path style="opacity:1" fill="#3b8dc9" d="M 794.5,164.5 C 840.983,165.651 866.649,189.318 871.5,235.5C 868.58,272.917 848.914,296.084 812.5,305C 776.587,308.964 750.754,294.798 735,262.5C 724.35,231.744 730.516,204.911 753.5,182C 765.582,172.288 779.249,166.455 794.5,164.5 Z"/></g>
<g><path style="opacity:1" fill="#3b8dc9" d="M 359.5,166.5 C 404.523,162.748 436.023,181.415 454,222.5C 466.008,265.151 454.174,299.317 418.5,325C 384.78,343.014 352.114,341.347 320.5,320C 287.377,290.402 279.21,254.902 296,213.5C 309.688,187.635 330.855,171.968 359.5,166.5 Z"/></g>
<g><path style="opacity:1" fill="#3b8dc9" d="M 1193.5,172.5 C 1224.12,174.62 1237.95,190.953 1235,221.5C 1229.37,240.324 1216.71,250.324 1197,251.5C 1173.17,248.998 1160,235.832 1157.5,212C 1159.66,189.68 1171.66,176.514 1193.5,172.5 Z"/></g>
<g><path style="opacity:1" fill="#3b8dc9" d="M 113.5,180.5 C 146.591,177.279 168.424,191.279 179,222.5C 184.431,255.82 171.598,278.654 140.5,291C 114.478,296.994 93.3118,289.494 77,268.5C 63.569,245.199 64.569,222.533 80,200.5C 89.0215,190.079 100.188,183.412 113.5,180.5 Z"/></g>
<g><path style="opacity:1" fill="#3b8dc9" d="M 1084.5,207.5 C 1108.5,204.741 1125,214.408 1134,236.5C 1139.59,262.502 1130.09,280.335 1105.5,290C 1080.16,294.749 1062.66,285.249 1053,261.5C 1047.93,234.136 1058.43,216.136 1084.5,207.5 Z"/></g>
<g><path style="opacity:1" fill="#3b8dc9" d="M 514.5,239.5 C 548.467,238.967 564.634,255.633 563,289.5C 555.162,314.327 538.328,324.827 512.5,321C 488.788,313.11 478.621,296.61 482,271.5C 486.755,254.578 497.588,243.911 514.5,239.5 Z"/></g>
<g><path style="opacity:1" fill="#3b8dc9" d="M 659.5,252.5 C 697.853,250.054 722.687,267.054 734,303.5C 739.152,337.363 726.652,362.196 696.5,378C 664.284,389.368 637.451,381.868 616,355.5C 600.383,329.61 600.717,303.944 617,278.5C 628.03,264.623 642.197,255.957 659.5,252.5 Z"/></g>
<g><path style="opacity:1" fill="#3b8dc9" d="M 222.5,268.5 C 246.882,266.746 262.715,277.413 270,300.5C 272.623,333.538 257.456,350.371 224.5,351C 198.042,345.183 186.208,328.683 189,301.5C 193.45,283.549 204.617,272.549 222.5,268.5 Z"/></g>
<g><path style="opacity:1" fill="#3b8dc9" d="M 801.5,321.5 C 833.419,318.96 853.586,332.96 862,363.5C 864.412,400.091 847.412,420.758 811,425.5C 784.041,423.537 767.041,409.537 760,383.5C 756.677,351.103 770.51,330.437 801.5,321.5 Z"/></g>
<g><path style="opacity:1" fill="#3b8dc9" d="M 91.5,329.5 C 133.689,327.494 163.523,345.494 181,383.5C 194.208,424.186 184.375,458.02 151.5,485C 120.603,504.769 88.9366,506.103 56.5,489C 18.5636,461.852 7.0636,426.019 22,381.5C 36.0283,351.907 59.195,334.574 91.5,329.5 Z"/></g>
<g><path style="opacity:1" fill="#3b8dc9" d="M 301.5,354.5 C 335.589,351.456 360.755,364.789 377,394.5C 389.8,427.464 383.3,455.964 357.5,480C 331.243,498.558 303.91,500.224 275.5,485C 245.425,463.108 235.925,434.275 247,398.5C 257.672,374.43 275.839,359.763 301.5,354.5 Z"/></g>
<g><path style="opacity:1" fill="#3b8dc9" d="M 1105.5,410.5 C 1135.67,413.826 1148.83,430.493 1145,460.5C 1138.99,478.845 1126.32,488.511 1107,489.5C 1082.95,487.121 1070.12,473.954 1068.5,450C 1070.04,426.632 1082.37,413.465 1105.5,410.5 Z"/></g>
<g><path style="opacity:1" fill="#3b8dc9" d="M 725.5,425.5 C 752.116,423.311 768.95,434.977 776,460.5C 777.971,487.518 765.804,504.018 739.5,510C 714.377,511.201 698.544,499.701 692,475.5C 689.94,449.763 701.106,433.096 725.5,425.5 Z"/></g>
<g><path style="opacity:1" fill="#0a2c73" d="M 1494.5,446.5 C 1510.84,446.333 1527.17,446.5 1543.5,447C 1570.37,447.625 1594.71,455.625 1616.5,471C 1632.7,485.903 1641.53,504.403 1643,526.5C 1644.95,545.613 1642.95,564.28 1637,582.5C 1624.15,609.378 1602.98,625.878 1573.5,632C 1564.92,633.892 1556.25,635.226 1547.5,636C 1526.77,636.953 1506.1,636.453 1485.5,634.5C 1484.67,674.829 1484.17,715.163 1484,755.5C 1483.17,757.667 1481.67,759.167 1479.5,760C 1470.17,760.667 1460.83,760.667 1451.5,760C 1449.33,759.167 1447.83,757.667 1447,755.5C 1446.33,655.833 1446.33,556.167 1447,456.5C 1447.97,452.594 1450.47,450.427 1454.5,450C 1467.97,448.6 1481.3,447.434 1494.5,446.5 Z M 1503.5,479.5 C 1521.24,478.983 1538.91,479.817 1556.5,482C 1589.7,487.048 1605.7,506.382 1604.5,540C 1604.59,580.575 1584.26,601.575 1543.5,603C 1523.83,603.517 1504.16,603.35 1484.5,602.5C 1484.5,562.167 1484.5,521.833 1484.5,481.5C 1490.98,480.955 1497.32,480.288 1503.5,479.5 Z"/></g>
<g><path style="opacity:1" fill="#3b8dc9" d="M 1006.5,477.5 C 1052.79,478.045 1083.63,500.045 1099,543.5C 1108.65,588.598 1094.15,623.431 1055.5,648C 1012.5,667.475 974.671,660.308 942,626.5C 918.199,594.078 915.199,559.744 933,523.5C 949.961,496.024 974.461,480.691 1006.5,477.5 Z"/></g>
<g><path style="opacity:1" fill="#3b8dc9" d="M 1175.5,479.5 C 1205.04,479.349 1225.88,492.682 1238,519.5C 1247.88,552.212 1238.72,578.045 1210.5,597C 1177.18,611.874 1149.34,605.041 1127,576.5C 1113.24,550.943 1114.58,526.276 1131,502.5C 1142.97,489.099 1157.8,481.433 1175.5,479.5 Z"/></g>
<g><path style="opacity:1" fill="#3b8dc9" d="M 95.5,525.5 C 117.72,524.512 132.22,534.512 139,555.5C 142.736,579.876 132.903,595.709 109.5,603C 92.8374,605.74 79.3374,600.574 69,587.5C 62.8896,577.684 60.8896,567.017 63,555.5C 68.0031,538.99 78.8365,528.99 95.5,525.5 Z"/></g>
<g><path style="opacity:1" fill="#0a2c73" d="M 1781.5,526.5 C 1784.52,526.804 1787.52,527.304 1790.5,528C 1791.7,528.903 1792.53,530.069 1793,531.5C 1793.67,539.833 1793.67,548.167 1793,556.5C 1792.17,557.333 1791.33,558.167 1790.5,559C 1767.81,559.046 1746.97,565.213 1728,577.5C 1727.67,636.5 1727.33,695.5 1727,754.5C 1725.83,757 1724,758.833 1721.5,760C 1712.83,760.667 1704.17,760.667 1695.5,760C 1692.67,759.167 1690.83,757.333 1690,754.5C 1689.33,681.5 1689.33,608.5 1690,535.5C 1691.26,532.572 1693.43,530.739 1696.5,530C 1704.17,529.333 1711.83,529.333 1719.5,530C 1721.33,530.273 1722.83,531.107 1724,532.5C 1725.73,536.668 1726.9,541.002 1727.5,545.5C 1743.93,534.359 1761.93,528.026 1781.5,526.5 Z"/></g>
<g><path style="opacity:1" fill="#0a2c73" d="M 1904.5,526.5 C 1960.54,527.043 1992.37,555.043 2000,610.5C 2000.67,633.5 2000.67,656.5 2000,679.5C 1993.24,733.97 1962.41,761.97 1907.5,763.5C 1851.68,761.184 1820.85,732.184 1815,676.5C 1814.33,655.5 1814.33,634.5 1815,613.5C 1820.54,559.123 1850.37,530.123 1904.5,526.5 Z M 1895.5,560.5 C 1931.24,555.599 1953.07,570.599 1961,605.5C 1963.93,630.12 1964.26,654.787 1962,679.5C 1958.04,711.868 1939.87,728.868 1907.5,730.5C 1884.6,730.983 1868.43,720.983 1859,700.5C 1856.06,692.732 1854.06,684.732 1853,676.5C 1852.33,655.5 1852.33,634.5 1853,613.5C 1854.48,596.366 1861.31,581.866 1873.5,570C 1880.34,565.409 1887.67,562.242 1895.5,560.5 Z"/></g>
<g><path style="opacity:1" fill="#0a2c73" d="M 2031.5,529.5 C 2042.91,529.067 2054.24,529.567 2065.5,531C 2067,532.5 2068.5,534 2070,535.5C 2087.02,561.55 2104.52,587.217 2122.5,612.5C 2139.58,588.007 2156.41,563.34 2173,538.5C 2178.32,530.056 2185.99,527.056 2196,529.5C 2200.83,529.667 2205.67,529.833 2210.5,530C 2213.41,530.647 2214.74,532.481 2214.5,535.5C 2214.24,538.028 2213.4,540.361 2212,542.5C 2188.55,574.777 2165.71,607.443 2143.5,640.5C 2168.77,677.613 2194.27,714.613 2220,751.5C 2220.77,754.099 2220.6,756.599 2219.5,759C 2207.26,760.626 2194.93,760.959 2182.5,760C 2161.28,730.443 2140.44,700.61 2120,670.5C 2099.56,700.61 2078.72,730.443 2057.5,760C 2046.83,760.667 2036.17,760.667 2025.5,760C 2023.78,759.225 2022.78,757.892 2022.5,756C 2023.14,753.755 2023.97,751.588 2025,749.5C 2049.85,713.989 2074.68,678.489 2099.5,643C 2075.68,608.511 2051.85,574.011 2028,539.5C 2027.33,536.833 2027.33,534.167 2028,531.5C 2029.3,530.915 2030.47,530.249 2031.5,529.5 Z"/></g>
<g><path style="opacity:1" fill="#0a2c73" d="M 2441.5,532.5 C 2441.5,535.833 2441.5,539.167 2441.5,542.5C 2416.82,628.863 2391.66,715.196 2366,801.5C 2357.19,825.826 2340.02,839.493 2314.5,842.5C 2302.17,842.5 2289.83,842.5 2277.5,842.5C 2269.19,841.524 2261.03,839.524 2253,836.5C 2251.9,832.448 2251.4,828.281 2251.5,824C 2251.4,819.719 2251.9,815.552 2253,811.5C 2255.59,809.986 2258.42,809.32 2261.5,809.5C 2277.79,811.311 2294.13,811.811 2310.5,811C 2322.68,808.989 2330.85,802.156 2335,790.5C 2338.45,780.719 2340.95,770.719 2342.5,760.5C 2327.61,762.746 2317.11,757.079 2311,743.5C 2290.54,675.981 2270.54,608.315 2251,540.5C 2249.57,535.195 2251.4,531.695 2256.5,530C 2265.5,529.333 2274.5,529.333 2283.5,530C 2285.29,530.785 2286.79,531.951 2288,533.5C 2305.13,594.357 2321.8,655.357 2338,716.5C 2338.96,725.298 2343.8,728.964 2352.5,727.5C 2369.22,662.285 2386.72,597.285 2405,532.5C 2406.17,531.107 2407.67,530.273 2409.5,530C 2418.5,529.333 2427.5,529.333 2436.5,530C 2438.45,530.366 2440.12,531.199 2441.5,532.5 Z"/></g>
<g><path style="opacity:1" fill="#3b8dc9" d="M 466.5,587.5 C 501.804,584.994 524.304,600.661 534,634.5C 537.693,664.958 525.86,686.792 498.5,700C 469.213,709.347 445.38,701.847 427,677.5C 417.27,659.451 415.937,640.784 423,621.5C 431.898,602.822 446.398,591.489 466.5,587.5 Z"/></g>
<g><path style="opacity:1" fill="#3b8dc9" d="M 597.5,595.5 C 622.658,593.814 638.158,605.147 644,629.5C 645.727,646.668 639.56,660.168 625.5,670C 604.259,680.086 586.092,676.253 571,658.5C 559.012,635.635 563.179,616.468 583.5,601C 588.017,598.445 592.684,596.612 597.5,595.5 Z"/></g>
<g><path style="opacity:1" fill="#3b8dc9" d="M -0.5,740.5 C -0.5,731.5 -0.5,722.5 -0.5,713.5C 7.24228,675.589 29.9089,651.755 67.5,642C 112.589,635.459 145.422,652.292 166,692.5C 180.907,735.395 170.74,770.895 135.5,799C 103.758,818.217 71.7579,818.884 39.5,801C 17.7726,786.377 4.43922,766.211 -0.5,740.5 Z"/></g>
<g><path style="opacity:1" fill="#3b8dc9" d="M 1149.5,649.5 C 1179.25,649.431 1197.75,663.765 1205,692.5C 1206.91,728.589 1189.91,748.922 1154,753.5C 1128.45,751.742 1111.79,738.742 1104,714.5C 1098.75,685.836 1109.25,665.336 1135.5,653C 1140.22,651.506 1144.89,650.339 1149.5,649.5 Z"/></g>
<g><path style="opacity:1" fill="#3b8dc9" d="M 906.5,657.5 C 935.852,656.587 958.018,668.587 973,693.5C 985.547,721.394 982.547,747.394 964,771.5C 940.814,794.404 913.98,799.904 883.5,788C 850.282,769.055 838.449,740.888 848,703.5C 858.587,676.738 878.087,661.405 906.5,657.5 Z"/></g>
<g><path style="opacity:1" fill="#3b8dc9" d="M 356.5,684.5 C 399.105,683.944 422.772,704.777 427.5,747C 425.364,780.466 408.03,801.132 375.5,809C 344.038,812.69 321.205,800.523 307,772.5C 295.68,739.464 304.18,712.964 332.5,693C 340.163,688.837 348.163,686.004 356.5,684.5 Z"/></g>
<g><path style="opacity:1" fill="#3b8dc9" d="M 622.5,692.5 C 658.235,691.932 681.402,708.598 692,742.5C 697.652,777.701 684.485,802.868 652.5,818C 620.206,827.901 594.039,819.401 574,792.5C 561.334,769.154 561.334,745.821 574,722.5C 585.883,705.48 602.05,695.48 622.5,692.5 Z"/></g>
<g><path style="opacity:1" fill="#3b8dc9" d="M 217.5,724.5 C 244.56,722.09 262.06,733.756 270,759.5C 272.715,791.782 258.048,810.115 226,814.5C 194.436,810.27 179.77,792.27 182,760.5C 186.669,741.332 198.502,729.332 217.5,724.5 Z"/></g>
<g><path style="opacity:1" fill="#3b8dc9" d="M 495.5,728.5 C 521.419,729.78 535.752,743.28 538.5,769C 536.33,793.836 522.83,807.336 498,809.5C 473.405,807.405 459.905,794.071 457.5,769.5C 459.892,746.114 472.559,732.447 495.5,728.5 Z"/></g>
<g><path style="opacity:1" fill="#3b8dc9" d="M 766.5,728.5 C 787.483,728.654 801.316,738.654 808,758.5C 812.169,779.992 804.669,795.825 785.5,806C 767.397,812.58 751.564,809.08 738,795.5C 724.874,776.643 725.541,758.31 740,740.5C 747.642,733.683 756.476,729.683 766.5,728.5 Z"/></g>
<g><path style="opacity:1" fill="#3b8dc9" d="M 1048.5,728.5 C 1074.72,729.558 1089.05,743.058 1091.5,769C 1091.02,788.818 1081.35,801.818 1062.5,808C 1041.51,812.084 1025.67,804.918 1015,786.5C 1007.32,765.717 1012.15,748.551 1029.5,735C 1035.59,731.694 1041.92,729.528 1048.5,728.5 Z"/></g>
</svg>
